<svg width="24" height="23" viewBox="0 0 24 23" xmlns="http://www.w3.org/2000/svg">
<path d="M4.84979 15.2889C7.11833 18.0006 9.84917 20.1357 12.966 21.6465C14.1527 22.2089 15.7398 22.8761 17.5079 22.9905C17.6175 22.9952 17.7224 23 17.832 23C19.0187 23 19.9718 22.5901 20.7487 21.7466C20.7534 21.7418 20.763 21.7323 20.7677 21.7227C21.0442 21.3891 21.3587 21.0889 21.6875 20.7696C21.9115 20.5551 22.1403 20.3311 22.3595 20.1024C23.3747 19.0443 23.3747 17.7004 22.35 16.6757L19.4857 13.8114C18.9996 13.3063 18.4182 13.0394 17.8081 13.0394C17.1981 13.0394 16.6119 13.3063 16.1115 13.8067L14.4053 15.5128C14.248 15.4223 14.086 15.3413 13.9335 15.265C13.7429 15.1697 13.5665 15.0792 13.4093 14.9791C11.8556 13.9925 10.4449 12.7058 9.09616 11.052C8.41465 10.1894 7.95712 9.46498 7.63781 8.72627C8.0858 8.32118 8.5052 7.89702 8.91029 7.48239C9.05327 7.33465 9.20101 7.1869 9.34875 7.03916C9.86347 6.52445 10.1399 5.92872 10.1399 5.32346C10.1399 4.71819 9.86823 4.12246 9.34875 3.60775L7.92853 2.18753C7.76172 2.02072 7.60445 1.85868 7.44241 1.69188C7.12787 1.3678 6.79902 1.03419 6.47494 0.733941C5.98406 0.25259 5.40739 0 4.79736 0C4.1921 0 3.61067 0.25259 3.10072 0.738707L1.31829 2.52114C0.670136 3.16929 0.303165 3.95566 0.226912 4.86593C0.136361 6.00497 0.346058 7.2155 0.889365 8.67862C1.72339 10.9424 2.98157 13.0441 4.84979 15.2889ZM1.38978 4.96602C1.44697 4.33216 1.69003 3.80315 2.14755 3.34563L3.92045 1.57273C4.19687 1.30584 4.50188 1.16763 4.79736 1.16763C5.08808 1.16763 5.38356 1.30584 5.65522 1.58226C5.97453 1.87775 6.27478 2.18753 6.59886 2.51637C6.7609 2.68317 6.9277 2.84998 7.0945 3.02155L8.51473 4.44177C8.81021 4.73726 8.96272 5.03751 8.96272 5.33299C8.96272 5.62847 8.81021 5.92872 8.51473 6.2242C8.36699 6.37194 8.21925 6.52445 8.0715 6.67219C7.62828 7.12018 7.21365 7.54434 6.75613 7.94944C6.7466 7.95897 6.74183 7.96374 6.7323 7.97327C6.33673 8.36884 6.39869 8.74534 6.49401 9.03129C6.49877 9.04559 6.50354 9.05512 6.50831 9.06942C6.87528 9.9511 7.38522 10.7899 8.18112 11.7907C9.61088 13.5541 11.1169 14.9219 12.7754 15.9751C12.9803 16.1086 13.1996 16.2134 13.4045 16.3183C13.5951 16.4136 13.7715 16.5041 13.9287 16.6042C13.9478 16.6138 13.9621 16.6233 13.9812 16.6328C14.1384 16.7138 14.2909 16.752 14.4434 16.752C14.8247 16.752 15.0725 16.5089 15.1536 16.4279L16.936 14.6455C17.2124 14.369 17.5127 14.2213 17.8081 14.2213C18.1703 14.2213 18.4658 14.4453 18.6517 14.6455L21.5255 17.5145C22.0974 18.0864 22.0926 18.706 21.5112 19.3112C21.311 19.5257 21.1013 19.7306 20.8773 19.9451C20.5437 20.2692 20.1958 20.6028 19.8813 20.9793C19.3332 21.5702 18.6803 21.8467 17.8367 21.8467C17.7557 21.8467 17.6699 21.8419 17.5889 21.8371C16.0257 21.737 14.5721 21.127 13.4807 20.6075C10.5164 19.173 7.91423 17.138 5.7553 14.5549C3.97764 12.415 2.78141 10.4229 1.99028 8.28782C1.49939 6.97721 1.31353 5.92395 1.38978 4.96602Z"/>
</svg>
