<svg width="38" height="48" viewBox="0 0 38 48" fill="none" xmlns="http://www.w3.org/2000/svg">
<path d="M18.9799 0C8.98162 0 0.893555 8.08806 0.893555 18.0864C0.893555 23.2887 3.49474 28.0034 6.05528 32.3522C9.18483 37.7582 12.924 42.7976 17.2729 47.2684C18.2077 48.2435 19.7526 48.2435 20.7276 47.2684C24.5481 43.4886 27.9215 39.221 30.7665 34.6689C33.8148 29.7507 37.1069 24.0606 37.1069 18.0864C37.0663 8.1287 28.9782 0 18.9799 0ZM18.9799 28.5724C12.924 28.5724 8.00617 23.6545 8.00617 17.5986C8.00617 11.5428 12.924 6.62489 18.9799 6.62489C25.0358 6.62489 29.9537 11.5021 29.9537 17.5986C29.9537 23.6952 25.0358 28.5724 18.9799 28.5724Z" fill="#E33439"/>
</svg>
