<svg xmlns="http://www.w3.org/2000/svg" xmlns:xlink="http://www.w3.org/1999/xlink"><symbol id="icon-arrow-left"><path fill-rule="evenodd" clip-rule="evenodd" d="M7.277 18.108l13.515 14.097L17.153 36 0 18.108 17.361 0 21 3.795 7.277 18.11z"/></symbol><symbol id="icon-basket"><path d="M33.26 11.543h-1.865l-.043-.047L21.178 1.322a1.174 1.174 0 10-1.66 1.66l8.56 8.561H7.922l8.561-8.56a1.174 1.174 0 10-1.66-1.66L4.648 11.495l-.043.047H2.74A2.742 2.742 0 000 14.284v1.565a2.743 2.743 0 002.526 2.73l2.25 13.501a3.51 3.51 0 003.474 2.943h19.844a3.54 3.54 0 003.486-3.024l1.918-13.421A2.743 2.743 0 0036 15.847v-1.564c0-1.51-1.229-2.74-2.74-2.74zm.392 4.305a.392.392 0 01-.391.391H21.52a1.174 1.174 0 000 2.348h9.604l-1.869 13.08a1.18 1.18 0 01-1.162 1.007H8.25a1.17 1.17 0 01-1.158-.981L4.908 18.587h9.57a1.174 1.174 0 000-2.348H2.74a.392.392 0 01-.391-.391v-1.565c0-.216.175-.392.391-.392h30.522c.216 0 .391.176.391.392v1.565z"/><path d="M10.957 20.935c-.649 0-1.174.525-1.174 1.174v7.043a1.174 1.174 0 002.348 0V22.11c0-.649-.526-1.174-1.174-1.174zM18 20.935c-.648 0-1.174.525-1.174 1.174v7.043a1.174 1.174 0 002.348 0V22.11c0-.649-.526-1.174-1.174-1.174zM25.044 20.935c-.649 0-1.174.525-1.174 1.174v7.043a1.174 1.174 0 002.348 0V22.11c0-.649-.526-1.174-1.174-1.174z"/></symbol><symbol id="icon-check" viewBox="0 0 512 512"><path d="M235.1 386.3c-5.7 0-11.1-2.4-14.9-6.6l-104.1-116c-7.4-8.2-6.7-20.9 1.5-28.2 8.2-7.4 20.9-6.7 28.2 1.5l86.8 96.8 131.6-199.1c6.1-9.2 18.5-11.7 27.7-5.7 9.2 6.1 11.7 18.5 5.7 27.7L251.8 377.4c-3.4 5.2-9 8.5-15.2 8.9h-1.5z" fill="#231f20"/></symbol><symbol id="icon-fb"><path fill-rule="evenodd" clip-rule="evenodd" d="M0 13.417C0 6.007 6.007 0 13.417 0s13.416 6.007 13.416 13.417-6.006 13.416-13.416 13.416S0 20.827 0 13.417z" fill="#3B5998"/><path fill-rule="evenodd" clip-rule="evenodd" d="M14.815 21.305v-7.299h2.015l.267-2.515h-2.282l.004-1.26c0-.655.062-1.007 1.004-1.007h1.26V6.708h-2.015c-2.421 0-3.273 1.22-3.273 3.273v1.51h-1.509v2.515h1.509v7.3h3.02z" fill="#fff"/></symbol><symbol id="icon-map"><path d="M18.98 0C8.982 0 .894 8.088.894 18.086c0 5.203 2.6 9.917 5.161 14.266 3.13 5.406 6.869 10.446 11.218 14.916.935.975 2.48.975 3.455 0 3.82-3.78 7.194-8.047 10.038-12.6 3.049-4.917 6.34-10.607 6.34-16.582C37.067 8.13 28.979 0 18.98 0zm0 28.572c-6.056 0-10.974-4.918-10.974-10.973 0-6.056 4.918-10.974 10.974-10.974a10.954 10.954 0 0110.974 10.974A10.954 10.954 0 0118.98 28.572z" fill="#E33439"/></symbol><symbol id="icon-polygon"><path d="M5.822 6.814a1 1 0 01-1.644 0L.891 2.069A1 1 0 011.713.5h6.574a1 1 0 01.822 1.57L5.822 6.813z" fill="#F9FAFE"/></symbol><symbol id="icon-tel"><path d="M4.85 15.289c2.268 2.712 5 4.847 8.116 6.357 1.187.563 2.774 1.23 4.542 1.345.11.004.214.009.324.009 1.187 0 2.14-.41 2.917-1.253.004-.005.014-.015.019-.024.276-.334.59-.634.92-.953.224-.215.452-.439.672-.668 1.015-1.058 1.015-2.402-.01-3.426l-2.864-2.865c-.486-.505-1.068-.772-1.678-.772-.61 0-1.196.267-1.697.768l-1.706 1.706c-.157-.09-.319-.172-.471-.248a5.878 5.878 0 01-.525-.286c-1.553-.986-2.964-2.273-4.313-3.927-.681-.863-1.139-1.587-1.458-2.326.448-.405.867-.829 1.272-1.244.143-.147.291-.295.439-.443.514-.515.79-1.11.79-1.716 0-.605-.27-1.2-.79-1.715l-1.42-1.42c-.167-.167-.325-.33-.487-.496a26.133 26.133 0 00-.967-.958C5.985.253 5.407 0 4.797 0c-.605 0-1.186.253-1.696.739L1.318 2.52A3.662 3.662 0 00.227 4.866c-.09 1.139.12 2.35.662 3.813.834 2.263 2.093 4.365 3.96 6.61zM1.39 4.966a2.52 2.52 0 01.758-1.62L3.92 1.573c.277-.267.582-.405.877-.405.291 0 .587.138.858.414.32.296.62.606.944.934.162.167.329.334.495.506l1.42 1.42c.296.295.449.596.449.891 0 .295-.153.596-.448.891l-.444.448c-.443.448-.857.872-1.315 1.277l-.024.024c-.395.396-.333.772-.238 1.058.005.015.01.024.014.038.367.882.877 1.72 1.673 2.722 1.43 1.763 2.936 3.13 4.594 4.184.205.134.425.238.63.343.19.096.367.186.524.286.019.01.033.02.052.029.157.08.31.119.462.119.382 0 .63-.243.71-.324l1.783-1.783c.276-.276.577-.424.872-.424.362 0 .658.224.844.425l2.873 2.869c.572.571.568 1.191-.014 1.796-.2.215-.41.42-.634.634-.333.324-.681.658-.996 1.034-.548.591-1.2.868-2.044.868-.081 0-.167-.005-.248-.01-1.563-.1-3.017-.71-4.108-1.23a23.18 23.18 0 01-7.726-6.052c-1.777-2.14-2.974-4.132-3.765-6.267-.49-1.31-.676-2.364-.6-3.322z"/></symbol><symbol id="icon-vk"><path fill-rule="evenodd" clip-rule="evenodd" d="M.833 13.417C.833 6.007 6.84 0 14.25 0s13.417 6.007 13.417 13.417S21.66 26.833 14.25 26.833.833 20.827.833 13.417z" fill="#4C6C91"/><path fill-rule="evenodd" clip-rule="evenodd" d="M14.952 17.82s.258-.029.39-.168c.122-.128.117-.369.117-.369s-.016-1.126.517-1.292c.525-.164 1.2 1.089 1.914 1.57.54.364.951.285.951.285l1.912-.026s1-.06.525-.832c-.039-.064-.276-.571-1.42-1.614-1.2-1.092-1.039-.916.405-2.804.879-1.15 1.23-1.853 1.12-2.153-.104-.287-.75-.21-.75-.21l-2.152.012s-.16-.021-.278.048c-.116.068-.19.227-.19.227s-.341.89-.795 1.647c-.959 1.597-1.341 1.681-1.498 1.582-.365-.231-.274-.929-.274-1.424 0-1.548.24-2.193-.465-2.36-.234-.056-.406-.092-1.005-.098-.768-.008-1.417.002-1.785.179-.245.117-.434.38-.319.395.142.019.464.085.635.313.22.295.213.956.213.956s.127 1.822-.296 2.048c-.29.155-.688-.161-1.542-1.61-.438-.742-.768-1.563-.768-1.563s-.064-.153-.178-.235c-.138-.1-.33-.13-.33-.13l-2.045.012s-.307.008-.42.14c-.1.116-.008.357-.008.357s1.601 3.676 3.414 5.53c1.663 1.698 3.55 1.587 3.55 1.587h.855z" fill="#fff"/></symbol><symbol id="icon-youtube"><path fill-rule="evenodd" clip-rule="evenodd" d="M.667 13.417C.667 6.007 6.674 0 14.084 0S27.5 6.007 27.5 13.417s-6.006 13.416-13.416 13.416S.667 20.827.667 13.417z" fill="red"/><path fill-rule="evenodd" clip-rule="evenodd" d="M20.94 10.103a1.817 1.817 0 00-1.265-1.299c-1.116-.307-5.591-.307-5.591-.307s-4.476 0-5.592.307c-.615.17-1.1.667-1.265 1.3-.299 1.145-.299 3.536-.299 3.536s0 2.391.3 3.537c.164.632.649 1.13 1.264 1.3 1.116.306 5.592.306 5.592.306s4.475 0 5.59-.307a1.817 1.817 0 001.266-1.299c.3-1.146.3-3.537.3-3.537s0-2.39-.3-3.537" fill="#fff"/><path fill-rule="evenodd" clip-rule="evenodd" d="M12.742 16.1v-4.472l3.578 2.236-3.578 2.236z" fill="red"/></symbol></svg>